<mxfile host="app.diagrams.net" modified="2024-01-30T03:27:31.398Z" agent="Mozilla/5.0 (Macintosh; Intel Mac OS X 10_15_7) AppleWebKit/537.36 (KHTML, like Gecko) Chrome/120.0.0.0 Safari/537.36" version="23.0.2" etag="ExvPgllrxfI3ZB2teYIz" type="github">
  <diagram name="Page-1" id="6azkGyFXNS6DhPelwme5">
    <mxGraphModel>
      <root>
        <mxCell id="0" />
        <mxCell id="1" parent="0" />
      </root>
    </mxGraphModel>
  </diagram>
</mxfile>
